<svg width="547" height="422" fill="none" xmlns="http://www.w3.org/2000/svg"><path d="M36.711 351.933c0 6.384 80.766 11.491 180.365 11.491 99.6 0 180.365-5.107 180.365-11.491 0-6.385-80.765-11.492-180.365-11.492-99.599 0-180.365 5.107-180.365 11.492z" fill="#B9F1FF"/><path d="M101.037 373.32c25.299 0 45.809-3.215 45.809-7.182 0-3.967-20.51-7.182-45.809-7.182-25.3 0-45.81 3.215-45.81 7.182 0 3.967 20.51 7.182 45.81 7.182z" fill="#B9F1FF"/><path d="M319.389 318.735h-79.967v21.547h79.967v-21.547z" fill="#00A9D2"/><path d="M403.506 325.757H156.263c-8.3 0-15.004-6.703-15.004-15.003V141.412c0-8.3 6.704-15.003 15.004-15.003h247.243c8.3 0 15.004 6.703 15.004 15.003v169.342c0 8.3-6.704 15.003-15.004 15.003z" fill="#01C1F0"/><path d="M400.633 306.604H158.179c-5.108 0-9.258-4.149-9.258-9.257V142.848c0-5.107 4.15-9.257 9.258-9.257h242.454c5.108 0 9.258 4.15 9.258 9.257v154.499c0 5.108-4.15 9.257-9.258 9.257z" fill="#BCF2FF"/><path d="M353.706 351.933H205.105v-1.916c0-6.384 5.267-11.651 11.652-11.651h125.298c6.384 0 11.651 5.267 11.651 11.651v1.916z" fill="#01C1F0"/><g opacity=".25"><g opacity=".25"><path opacity=".25" d="M236.709 235.101h-7.981v19.95h7.981v-19.95z" fill="#FCA70C"/><path opacity=".25" d="M254.586 217.704h-7.981v37.507h7.981v-37.507z" fill="#B1AFFD"/><path opacity=".25" d="M272.463 221.534h-7.981v33.677h7.981v-33.677z" fill="#FCA70C"/><path opacity=".25" d="M290.34 202.541h-7.981v52.511h7.981v-52.511z" fill="#B1AFFD"/><g opacity=".15"><path opacity=".26" d="M250.276 217.704h-3.671v37.507h3.671v-37.507z" fill="#000"/></g><g opacity=".15"><path opacity=".26" d="M232.399 235.101h-3.671v19.95h3.671v-19.95z" fill="#000"/></g><g opacity=".62"><path opacity=".26" d="M286.03 202.541h-3.671v52.511h3.671v-52.511z" fill="#000"/></g><g opacity=".15"><path opacity=".26" d="M268.153 221.534h-3.671v33.677h3.671v-33.677z" fill="#000"/></g><path opacity=".25" d="M294.49 260.638h-71.029v-75.813h1.117v74.696h69.912v1.117z" fill="#D5DBDA"/><path opacity=".25" d="M230.803 225.844l-.798-.798 18.675-16.759 17.239 3.83 18.675-20.908.798.798-19.154 21.228L249 209.564l-18.197 16.28z" fill="#D5DBDA"/><path opacity=".25" d="M286.828 195.039l-5.267-4.947 6.703-1.916-1.436 6.863z" fill="#D5DBDA"/><g opacity=".25"><path opacity=".25" d="M306.78 233.824h-5.427v5.426h5.427v-5.426z" fill="#B1AFFD"/><path opacity=".25" d="M306.78 243.4h-5.427v5.427h5.427V243.4z" fill="#FCA70C"/><path opacity=".25" d="M325.455 245.635h-17.239v3.032h17.239v-3.032zm0-9.577h-17.239v3.033h17.239v-3.033z" fill="#EFEFEF"/></g><g opacity=".25"><path opacity=".25" d="M338.862 233.824h-5.426v5.426h5.426v-5.426z" fill="#B1AFFD"/><path opacity=".25" d="M338.862 243.4h-5.426v5.427h5.426V243.4z" fill="#FCA70C"/><path opacity=".25" d="M357.537 245.635h-17.238v3.032h17.238v-3.032zm0-9.577h-17.238v3.033h17.238v-3.033z" fill="#EFEFEF"/></g><g opacity=".25"><path opacity=".25" d="M367.753 233.824h-5.427v5.426h5.427v-5.426z" fill="#B1AFFD"/><path opacity=".25" d="M367.753 243.4h-5.427v5.427h5.427V243.4z" fill="#FCA70C"/><path opacity=".25" d="M380.681 245.635h-11.332v3.032h11.332v-3.032zm0-9.577h-11.332v3.033h11.332v-3.033z" fill="#EFEFEF"/></g><path opacity=".25" d="M380.681 181.632h-78.37v1.437h78.37v-1.437zm.001-17.556H223.461v3.192h157.221v-3.192zm-.001 22.025h-78.53v1.437h78.53v-1.437zm0-8.937h-78.53v1.436h78.53v-1.436zm0 13.247h-78.53v1.436h78.53v-1.436zm0 4.469h-78.53v1.436h78.53v-1.436zm0 4.469h-78.53v1.436h78.53v-1.436zm0 4.469h-78.53v1.436h78.53v-1.436zm0 4.309h-78.53v1.436h78.53v-1.436zm0 4.469h-78.53v1.437h78.53v-1.437zm.001 4.469h-68.954v1.437h68.954v-1.437z" fill="#EFEFEF"/></g><path opacity=".25" d="M368.072 155.616a2.235 2.235 0 100-4.47 2.235 2.235 0 000 4.47zm9.417 0a2.234 2.234 0 10.002-4.468 2.234 2.234 0 00-.002 4.468zm9.417 0a2.234 2.234 0 10.002-4.468 2.234 2.234 0 00-.002 4.468z" fill="#CFCFFF"/></g><g filter="url(#filter0_d)"><path d="M341.097 290.644H174.619c-4.469 0-7.981-3.512-7.981-7.981V176.046c0-4.469 3.512-7.98 7.981-7.98h166.478c4.469 0 7.981 3.511 7.981 7.98v106.617c0 4.31-3.671 7.981-7.981 7.981z" fill="#fff"/></g><path d="M191.857 257.605h-7.981v19.951h7.981v-19.951z" fill="#01C1F0"/><path d="M209.734 240.049h-7.981v37.507h7.981v-37.507z" fill="#FE5072"/><path d="M227.771 243.879h-7.981v33.677h7.981v-33.677z" fill="#01C1F0"/><path d="M245.648 224.886h-7.981v52.511h7.981v-52.511z" fill="#FE5072"/><path d="M249.798 282.983h-71.189v-68.95h1.118v67.833h70.071v1.117z" fill="#D5DBDA"/><path d="M185.952 248.189l-.798-.798 18.675-16.759 17.238 3.831 18.675-20.909.798.798-19.154 21.228-17.238-3.671-18.196 16.28z" fill="#D5DBDA"/><path d="M241.976 217.385l-5.267-4.948 6.863-1.916-1.596 6.864z" fill="#D5DBDA"/><path d="M261.928 256.169h-5.427v5.427h5.427v-5.427z" fill="#FE5072"/><path d="M261.928 265.745h-5.427v5.427h5.427v-5.427z" fill="#FCA70C"/><path d="M280.763 267.98h-17.239v3.033h17.239v-3.033zm0-9.577h-17.239v3.033h17.239v-3.033z" fill="#EFEFEF"/><path d="M294.011 256.169h-5.427v5.427h5.427v-5.427z" fill="#FE5072"/><path d="M294.011 265.745h-5.427v5.427h5.427v-5.427z" fill="#FCA70C"/><path d="M312.845 267.98h-17.238v3.033h17.238v-3.033zm0-9.577h-17.238v3.033h17.238v-3.033z" fill="#EFEFEF"/><path d="M322.901 256.169h-5.427v5.427h5.427v-5.427z" fill="#FE5072"/><path d="M322.901 265.745h-5.427v5.427h5.427v-5.427z" fill="#FCA70C"/><path d="M335.83 267.98h-11.333v3.033h11.333v-3.033zm0-9.577h-11.333v3.033h11.333v-3.033zm.16-54.425h-78.371v1.436h78.371v-1.436zm-.16-17.557H178.609v3.192H335.83v-3.192zm0 22.025h-78.531v1.437h78.531v-1.437zm0-8.937h-78.531v1.436h78.531v-1.436zm0 13.247h-78.531v1.436h78.531v-1.436zm0 4.469h-78.531v1.437h78.531v-1.437zm0 4.469h-78.531v1.436h78.531v-1.436zm0 4.469h-78.531v1.437h78.531v-1.437zm0 4.309h-78.531v1.437h78.531v-1.437zm0 4.469h-78.531v1.437h78.531v-1.437zm0 4.469h-68.954v1.437h68.954v-1.437z" fill="#EFEFEF"/><path d="M341.097 167.906H174.619c-4.469 0-7.981 3.512-7.981 7.981v7.022h182.44v-7.022c0-4.31-3.671-7.981-7.981-7.981z" fill="#01C1F0"/><path d="M323.22 177.962a2.235 2.235 0 100-4.47 2.235 2.235 0 000 4.47zm9.417 0a2.235 2.235 0 100-4.47 2.235 2.235 0 000 4.47zm9.418 0a2.235 2.235 0 100-4.47 2.235 2.235 0 000 4.47z" fill="#fff"/><path opacity=".35" d="M402.708 126.568h-42.776c.319 13.886.478 27.772.638 41.498 0 2.075 0 4.309-.798 6.225-.639 0-.319.159-.479 1.117-1.756 2.873-5.108 4.309-8.459 5.107v.479c-.32.319-.479.798-.32 1.277.16.479 2.714 1.117 6.066.798.957-.16 2.873-.638 3.671-.958l1.436-.957c.479 0 .798-.16 1.277-.319l.16.159 3.831-1.596s-.479-2.394-.798-3.671c0-.319-.16-.479-.32-.638 3.193-8.619 5.746-17.557 7.502-26.655-.638 11.333-4.788 34.156-5.107 34.954-.479 1.277-2.235 3.192-4.789 3.352-.958 0-5.427-.16-4.948 1.915.16.479 2.394 1.596 5.746 1.756.958 0 2.873-.16 3.831-.319 1.277-.319 2.394-1.277 2.394-1.277l.479.638 3.99-.957v-2.394c0-1.277-.798-2.394-.798-2.394v-2.235l2.235-.319s4.469-14.524 6.704-19.632c.957-2.075 1.915-3.99 2.394-6.224.638-2.554.798-5.108.958-7.821.319-4.788 1.277-9.417 2.553-14.046.16-.319.16-.638.32-.798.319-.319.957-.478 1.436-.478 5.746-.479 8.3.478 11.971-.639 4.789-1.436 5.268-3.671 5.427-3.671-1.436-.957-3.352-1.277-5.427-1.277z" fill="#01A6CD"/><path opacity=".35" d="M158.657 203.339c-1.596 1.756-3.352 5.427-4.15 6.863-.798 1.596-1.596 2.394-3.83 3.511-3.033 1.437-6.385 2.714-9.418 3.991v8.139c6.385-3.83 12.131-7.341 12.291-7.501 4.948 1.915 8.938-2.235 10.215-5.107.638-1.277-.319-1.916-.319-2.395 0-.319.319-2.234.319-2.394-.319-1.755-4.948-.159-4.629-.957.16-.639.798-2.075 1.916-2.873 2.234-1.596 3.99-3.192 3.99-3.831 0-1.277-5.746 2.075-6.385 2.554z" fill="#01A7CF"/><path d="M110.294 169.822c2.075 3.671.319 8.778 2.394 12.449.798 1.436 2.394 2.713 2.714 4.309.319 1.437-.16 3.033-1.277 3.831-1.118.958-2.714.958-3.991.319-.319-.159-.479-.319-.798-.479-1.117-.319-2.075.639-2.873 1.277-1.117.798-2.554 1.117-3.831.639-1.596-.479-2.713-2.235-3.192-3.831-1.596-4.629-.479-9.736.958-14.365.638-2.394 1.756-4.947 3.99-5.745" fill="#5045AF"/><path d="M160.094 209.085c0 .479.798.957.319 2.075-1.117 2.394-4.788 5.746-9.098 4.149-.159 0-23.942 13.727-25.698 13.727-1.755 0-14.365-11.811-18.355-26.335-.958-3.512-.639-7.502 2.713-9.258 0 0 2.714.639 4.469 3.991 2.714 5.107 10.854 22.025 12.61 22.664 2.235-1.437 13.088-4.789 21.867-8.459 1.916-.799 2.714-1.597 3.352-2.873.639-1.277 2.235-4.31 3.671-5.746.479-.479 5.746-3.352 5.746-2.394 0 .478-1.596 1.915-3.511 3.192-.958.638-1.437 1.915-1.756 2.394-.319.638 3.671-.639 4.15.798-.16.319-.479 1.756-.479 2.075z" fill="#FFBE9D"/><path d="M108.858 192.965c3.032.798 5.586 2.713 7.023 5.426.319.639.638 1.437.958 2.235 1.276 3.192 3.032 6.065 4.309 9.417-1.756 1.436-3.831 2.075-5.586 2.713-1.597.638-3.512.798-5.268.638-.319 0-.638.001-.798-.159-.319-.16-.638-.479-.957-.798-.479-.639-1.118-1.277-1.597-1.915-.478-.479-.798-1.118-1.117-1.756-.319-.958 0-1.915.319-2.873" fill="#01C1F0"/><path opacity=".35" d="M111.89 201.743c-.159-.16-.159-.319-.479-.319-.319-.16-.638.159-.798.319-.159.319-.159.639-.159.958 0 1.277.159 2.553.638 3.83l-.479 6.863c1.596.16 3.352-.159 4.789-.638.798-.319 1.596-.479 2.394-.958-.798-3.671-3.352-7.022-5.906-10.055z" fill="#7762EF"/><path d="M101.356 186.261s-.16 4.31.638 4.469a23.39 23.39 0 002.714.798v8.779l-11.652-1.756-8.14-4.469s8.46-2.713 8.46-3.671c0-.798-.48-5.586-.48-5.586M83.32 313.468c-3.193 15.162-1.756 36.071-2.395 47.563.16 0 4.31.638 4.31.638s9.896-48.201 11.652-57.458c.16-.639.16-1.277.16-1.756.478-7.023-5.906-7.342-9.418-1.596-.638.958-1.117 1.915-1.596 3.032-.16.479-.32.958-.639 1.437-.638 1.436-1.117 3.192-1.596 4.788v.16c-.16.479-.319.957-.319 1.436v.16c.16.638 0 1.117-.16 1.596z" fill="#FFBE9D"/><path d="M102.154 258.882c-.16 1.277-.798 7.182-1.596 14.365-.639 5.905-1.437 12.609-2.075 17.876-.479 3.99-.798 7.182-.958 8.618 0 .958-.16 1.756-.32 2.554-1.436 7.023-6.384 7.342-9.257 5.746-.479-.16-.798-.479-1.117-.798-.639-.639-1.117-1.277-1.277-2.075-.16-1.436-.32-3.352-.479-5.746-.32-4.469-.638-10.374-.957-15.96-.32-7.023-.48-13.567-.639-17.398v-.638c0-11.651 10.535-18.993 17.238-15.322.16 0 .16 0 .16.159.16 0 .16.16.319.16.798.479.958 2.234.958 4.15.16 1.436.16 3.032 0 4.309z" fill="#FFBE9D"/><path d="M86.033 302.615l-.798-3.033c0 .638.16 5.586-.958 10.534v.16c-.16.479-.16.957-.32 1.436v.16c-.159.798-.318 1.277-.318 1.596 0 1.436 2.873-4.788 3.511-6.225.16-.159.16-.319.16-.319l-.798-3.192-.48-1.117z" fill="#FFB9B0"/><path d="M108.858 316.341c-.319 15.961 4.629 34.635 5.906 46.286.159 0 3.99-.479 3.99-.479s.798-48.84.798-58.416c0-.638 0-1.277-.16-1.915-.798-7.023-6.544-5.746-8.619.798-.319 1.117-.638 2.234-.957 3.511-.16.479-.16.958-.32 1.596-.319 1.596-.479 3.352-.638 5.267v.16c0 .479 0 1.117-.16 1.596v.159c.16.32.16.958.16 1.437z" fill="#FFBE9D"/><path d="M112.21 309.957c-.479-.16-.798-.32-1.118-.479-.798-.479-1.276-1.118-1.436-1.756-.479-1.436-.958-3.352-1.437-5.586a349.003 349.003 0 01-3.511-15.642c-1.437-6.863-2.714-13.407-3.512-17.237 0-.16-.638-2.873-.638-3.192-2.075-11.652 7.023-19.153 13.567-16.919.16 0 .16 0 .319.16 1.277.479 1.756 5.267 1.916 8.3.319 3.192 2.554 35.751 3.032 41.657.16.958.16 1.756.16 2.713-.16 7.183-4.469 8.779-7.342 7.981z" fill="#FFBE9D"/><path d="M109.337 304.849l-1.277-2.873c.16.639.958 5.586.958 10.853v.16c0 .479 0 1.117-.16 1.596v1.756c.16 1.436 1.756-5.427 2.235-7.023v-.319l-1.277-3.033-.479-1.117z" fill="#FFB9B0"/><path d="M89.225 236.537s-8.46 10.853-7.662 21.707c.32 4.469.958 8.459 1.437 13.087 0 .639 1.117 10.215.798 10.215 0 0 17.558 5.427 34.636-1.756 0-1.117 1.437-23.462-7.821-44.689-11.173 1.755-21.388 1.436-21.388 1.436z" fill="#3F49A5"/><path d="M115.881 211.479c0 3.033-1.756 4.948-4.15 7.661-.319.479-.958 7.342-1.277 11.971-.16 2.394.958 3.83 0 4.149-3.352 3.033-15.642 5.427-21.389 1.277.639-4.947-1.596-15.96-3.192-21.706-.16-.798-.479-1.596-.638-2.075-1.437-4.309-3.99-17.876-2.075-18.514.319-.16.957-.32 1.596-.479 2.873-.958 7.342-2.394 7.342-2.394s2.554 7.501 9.258 8.459c3.671-1.437 3.352-6.065 3.192-8.14 1.117.319 1.756.638 5.427 1.756.958 1.436.16 4.628 1.756 9.257.638 1.117 4.309 5.107 4.15 8.778z" fill="#01C1F0"/><path d="M109.815 168.864s.639 8.14-.798 12.449c-1.117 3.193-5.267 6.225-8.938 6.066-9.737 0-11.493-13.248-11.493-13.886 0-.639 14.525-6.225 14.525-6.225l6.704 1.596z" fill="#FFBE9D"/><path d="M128.49 367.255c-3.511.639-7.182-.319-8.779-.16-1.277.16-4.469 1.118-5.746 0-1.277-1.117-.957-4.947.319-5.426 0 0 .32.159.958.159.798.16 2.394.16 4.15-.319 2.714 1.118 2.714 1.596 5.746 2.235 1.277.319 2.873.638 3.831 1.117 1.437.638 1.596 2.075-.479 2.394zm-37.669 1.437c-3.511-.639-5.746-2.554-7.182-2.714-1.277-.159-4.47-.798-4.789-2.075-.319-.957.639-4.947 2.235-4.947 0 0 .32.159.798.478.798.479 2.075.958 3.99 1.118 2.075 1.915 2.075 2.394 4.63 3.99 1.116.638 2.393 1.596 3.191 2.394 1.118.798-.798 2.234-2.873 1.756z" fill="#5045AF"/><path d="M39.904 205.733l3.192-3.83 19.633 17.556s9.577-12.768 12.13-16.758c2.874-4.31 5.427-8.14 9.737-8.779.958.639-.32 16.28-.798 16.759-5.906 4.469-17.398 18.674-21.07 19.472-4.15.639-22.824-24.42-22.824-24.42z" fill="#FFBE9D"/><path d="M86.033 193.125s-3.99 0-5.746 1.436c-1.756 1.436-9.897 14.524-9.897 14.524s-.16 2.394 2.235 4.469c2.554 2.235 5.906 2.554 5.906 2.554s4.15-4.15 6.384-5.906c1.437-1.117 1.596 1.756 1.596 1.756l7.343-7.182-7.821-11.651z" fill="#01C1F0"/><path d="M83.638 193.284c-.16-.16-.478-.319-.638-.319-1.117-.639-2.234-1.437-2.554-2.714-.638-1.915-.957-4.628 0-6.384.639-1.277 1.916-2.075 2.714-3.032 1.117-1.437 1.436-3.512 1.596-5.427.16-1.915 0-3.831.319-5.586.638-3.192 1.596-6.225 3.99-8.14 3.831-3.192 11.812-5.267 15.962-1.596.798.638.958 1.117 1.915 1.276 1.437.16 2.235.32 3.512 1.118 1.436.798 3.032 1.915 2.873 3.83-.16 1.277-1.596 3.352-2.714 3.831-.478.319-.957.319-1.436.319-1.596 0-3.033-1.117-4.629-.798-.798.16-1.596.479-2.075 1.117-.638.798-.479 1.756-1.117 2.394-1.118 1.118-2.873.958-4.15 1.756-.16.16-.48.319-.639.479-.16.159-.16.479-.16.638v2.075c-.638-.319-.638-1.277-1.276-1.596-.48-.479-1.277-.319-1.916.16-.478.479-.798 1.117-.957 1.755-.16.798.16 1.596.319 2.395.479 1.436 1.596 2.713 2.554 1.755.638.958 0 2.714-.16 3.99 0 .958 0 2.714.798 3.352.798.639 2.075.16 2.075 1.596 0 1.277-1.277 2.394-2.554 2.554-1.277.159-2.553-.319-3.83-.639-1.277-.319-2.714-.638-3.831-.159-.798.319-1.437.798-2.235.957-.319-.319-1.117-.638-1.756-.957z" fill="#5045AF"/><path d="M48.045 206.372s-4.63-3.671-4.949-4.629c-.319-.958-.319-2.075-.798-3.033-.478-1.436-1.755-2.553-3.192-3.192-1.117-.478-.638-.798-1.756-.638-1.915.319-2.713 2.234-3.511 3.671-3.192 6.065 5.586 7.182 5.906 7.342.638 0 3.83 3.671 3.83 3.671" fill="#FFBE9D"/><path d="M33.52 203.339l3.192 2.075c.479.319.958.16 1.277-.319l6.863-11.652-4.15-2.234-7.502 10.853c-.16.479-.16.958.32 1.277z" fill="#01C1F0"/><path d="M22.187 178.76l1.117.798 4.47-6.384-1.118-.798c-1.596-1.118-3.83-.479-4.948 1.277-1.277 1.755-.957 3.99.479 5.107z" fill="#89E8FF"/><path d="M18.197 186.581l20.27 3.032 4.63-6.703-10.216-17.717-14.684 21.388z" fill="#89E8FF"/><path d="M19.473 186.74l18.994 2.873 1.756-2.713-15.802-7.183-4.948 7.023z" fill="#51DDFF"/><path d="M46.768 194.401c1.117.798 2.713.319 3.511-.957l.798-1.118c.798-1.277.639-2.873-.479-3.511-1.117-.798-2.713-.319-3.511.958l-.798 1.117c-.798 1.277-.639 2.873.479 3.511z" fill="#89E8FF"/><path d="M47.087 189.773l-.798 1.117c-.798 1.277-.639 2.873.479 3.511 1.117.798 2.713.32 3.511-.957l.798-1.118c0-.159.16-.159.16-.319-.798.958-2.235 1.277-3.352.639-.958-.639-1.277-2.075-.639-3.352 0 .319 0 .319-.16.479zm-29.529-2.554c.638.479 1.596.16 2.075-.479l13.886-20.11c.48-.798.32-1.596-.319-2.075-.638-.479-1.596-.16-2.075.479l-13.727 20.11c-.638.638-.479 1.596.16 2.075z" fill="#51DDFF"/><path d="M33.52 164.713l-11.493 16.759c-.479.798-1.436.958-2.075.479-.16-.16-.319-.16-.319-.319l-2.394 3.351c-.479.798-.32 1.597.32 2.075.638.479 1.595.16 2.074-.478l13.887-20.111c.319-.479.319-1.277 0-1.756z" fill="#01C1F0"/><path d="M40.224 193.125l1.277.957c1.915 1.277 4.788.639 6.224-1.596l1.277-1.915c1.437-2.235 1.118-5.108-.798-6.384l-1.277-.958c-1.915-1.277-4.788-.639-6.225 1.596l-1.276 1.915c-1.437 2.235-1.118 5.108.797 6.385z" fill="#51DDFF"/><path d="M39.585 186.581l-1.916 2.872c-.478.639-.319 1.597.16 2.075l6.066 4.15c.638.479 1.436.16 1.915-.479l1.915-2.873c-.479.639-1.436.958-1.915.479l-6.066-4.15c-.638-.478-.638-1.276-.16-2.074z" fill="#01C1F0"/><path d="M34.158 200.466a6.208 6.208 0 011.117-4.788c.32-.479.798-.798 1.118-1.277.16-.16.319-.319.638-.479.479-.16.958 0 1.437.319.478.319.957.639 1.277 1.277.319.798-.16 1.437-.958 1.915l-.16.16c0 .16 0 .319.16.319a3.08 3.08 0 01.479 1.596c0 .479-.48.958-1.118.798-.16 0-.478-.159-.638 0v.16c0 .479 0 .957-.32 1.277 0 .159-.159.159-.319.159h-.319c-.319-.159-.798-.319-1.117-.479" fill="#FFBE9D"/><path d="M43.096 201.902c-.16-.638-.319-1.755-.319-2.553 0-1.916-1.117-3.671-2.713-4.629-.16 0-.32-.159-.48-.159-.159 0-.318.159-.318.478 0 .16 0 .32.16.639.159.638.957 1.755.797 2.234-.319.958-.638 1.916-.638 2.873 0 .798.479 2.235 1.436 2.394M337.586 74.856s-3.671-2.554-3.831-3.671c-.16-1.117-2.713-5.586-3.512-6.384-.798-.958-5.267-2.395-6.065-2.554-.958-.16-6.225.32-5.586 1.117.638.798 4.15.479 4.788.798l.638.32s-.638.957-.319 1.436-1.117 1.436-.638 2.234c.479.958-.16.798.319 1.916.798 1.596 2.873 2.553 3.352 2.075.319.957 1.915 2.872 3.352 2.713 1.436-.16 4.948 3.192 4.948 3.192m59.217-21.866c.159 2.553 0 6.863.638 7.501.639.639 3.033.479 3.033.479s-8.3 10.374-8.939 9.896c-.798-.639-10.534-8.46-8.3-8.938 2.235-.48 4.31-.32 4.31-1.437s-.16-2.234-.16-3.352" fill="#FFBE9D"/><path d="M403.667 111.884s-16.122 1.756-19.793 1.916c-3.671 0-3.511-1.916-3.511-1.916-.16-4.149-.958-13.726-1.596-16.918-.639-3.032-.958-4.15-1.597-7.023-1.436-6.384-1.276-7.66-2.713-15.641l9.577-7.661s.958 3.032 4.948 3.032c5.427 0 7.023-3.67 7.023-3.67l13.088 8.778 1.277 21.227-1.596 17.398" fill="#FCA70C"/><path d="M394.409 53.788c-.319 1.277-.639 2.553-1.117 3.67-.798 2.235-2.075 3.033-4.47 3.033-1.596 0-3.351 0-4.948.16-1.277 0-2.873 0-3.83-.798-.958-.798-.958-2.394-1.277-3.512-.32-1.596-.479-3.192-.639-4.628a89.967 89.967 0 01-.479-9.257c0-.48 0-.799.16-1.277 0-.16.16-.32.16-.48.159-.159.319-.159.638-.159 3.033-.478 6.225-.638 9.258-.638 2.234 0 4.469.32 6.225 1.596 1.755 1.277 2.554 3.511 3.352 5.586.159.32.159.798-.16.958m-38.947 121.301s.479 3.192.958 4.309c.479 1.118 3.991.16 4.31-.638.159-.639-1.118-5.906-1.118-5.906" fill="#FFBE9D"/><path d="M364.88 173.812c.319 1.117.638 3.511.638 3.511l-3.511 1.596-.639-.479s-.957 1.118-1.915 1.596c-.798.32-2.554.798-3.512.958-3.192.319-5.427-.319-5.586-.638-.798-1.756 3.352-2.235 4.15-2.554 2.394-.638 3.671-2.713 3.99-3.99.16-.958 0-1.117.479-1.117 0 0 .479 0 .958.478.638.639 1.596.958 2.554.639.478-.16.957-.639 1.276-1.117-.159-.16.799 0 1.118 1.117z" fill="#38287C"/><path d="M374.138 127.366c-5.587 1.117-12.61 1.117-18.356.479.798 2.234 2.713 5.107 3.511 8.459 2.395 10.534 3.352 24.739 3.991 33.518 0 0-1.118 2.234-4.948.478-5.587-13.885-15.483-41.976-15.323-48.201.159-7.821 19.473-9.576 33.678-11.492" fill="#453087"/><path d="M399.037 111.885c4.47 3.192-24.74 15.482-24.74 15.482a48.757 48.757 0 01-9.577.957c-.319-.638-.638-1.117-.638-1.755-.16-.799-.16-1.756-.16-2.554-.319-1.596-1.436-3.033-2.873-3.99-1.437-.798-3.192-1.277-4.788-1.596-3.991-.639-10.854-.16-10.854-.16 8.779-6.544 26.815-7.342 35.115-7.821 1.437 2.554 17.877.958 18.515 1.437z" fill="#38287C"/><path d="M367.593 176.685s0 3.192.16 4.469c.159 1.117 3.99.798 4.31.16.319-.639-.16-6.065-.16-6.065" fill="#FFBE9D"/><path d="M373.18 182.271c.159 1.277.159 3.512.159 3.512l-3.83.957-.479-.638s-1.118.958-2.235 1.277c-.798.159-2.713.479-3.511.319-3.193-.16-5.268-1.117-5.427-1.596-.479-1.915 3.671-1.756 4.629-1.756 2.394-.159 4.149-1.915 4.628-3.192.32-.958.16-1.117.639-.958 0 0 .479.001.798.639.479.798 1.436 1.277 2.394.958.479-.16 1.117-.32 1.437-.798-.16-.16.638.159.798 1.276z" fill="#38287C"/><path d="M408.774 111.246s-8.939.958-19.792.639c-2.554 0-21.708 3.67-23.464 6.863-3.032 5.267 1.916 36.55 1.437 58.894 0 0 2.234 1.916 6.384.16.958-11.013 7.502-36.869 3.033-48.84 10.535 1.437 18.994 2.714 28.731-.319 2.234-.798 3.99-2.394 4.948-5.267.798-3.192.319-9.576-1.277-12.13z" fill="#453087"/><path d="M383.874 64.641s-2.234.16-2.713.16c-1.915.16-3.831.478-5.746 1.117-2.554.958-4.469 3.352-6.544 5.267-2.075 1.756-12.61 11.97-14.685 12.29-1.915.319-19.313-11.492-19.313-11.492l-4.31 4.31s18.835 17.396 24.421 17.396c2.714 0 17.717-7.82 22.506-11.012l6.384-18.036z" fill="#FCA70C"/><path opacity=".25" d="M355.144 90.178c-3.831.16-21.548-13.247-23.623-14.843l-.798.798s18.834 17.397 24.421 17.397c2.234 0 13.088-5.427 19.473-9.097l1.596-.958-.958-5.905c0 .16-15.961 12.449-20.111 12.608z" fill="#CE4A30"/><path d="M337.107 114.757h43.096l-7.662-25.217c-.479-1.437-1.756-2.395-3.192-2.395H331.68c-1.437 0-2.554 1.437-2.075 2.714l7.502 24.898z" fill="#89E8FF"/><path d="M336.628 114.757h42.457l-7.661-25.217c-.479-1.437-1.756-2.395-3.192-2.395h-37.829c-1.437 0-2.554 1.437-2.075 2.714l7.342 24.1c.16.479.479.798.958.798z" fill="#01C1F0"/><path opacity=".25" d="M402.868 76.771c-2.075 9.736-2.554 17.237-3.192 24.26-7.502 2.873-10.535 7.342-18.036 10.534 0 0-5.747-.957-6.385 1.277-.319 1.277 6.863 2.235 6.863 2.235 6.864 0 24.9-4.948 26.018-5.267 1.276-.32 4.788-23.303 4.948-35.593 0-1.755 0-3.67-1.118-5.107-.638-.798-1.436-1.277-2.234-1.596-4.789-2.394-8.3-3.192-13.727-3.512" fill="#CE4A30"/><path d="M382.757 113.002c-.798-.958-2.235-1.117-3.512-1.117-.957 0-1.915.159-2.873.159-.479 0-.958.16-.958.639s2.075 0 3.193.319c-2.235.16-4.469.319-6.704.16h-.798c-.319.159-.479.319-.479.638 0 .16.16.319.319.479.639.479 1.437.798 2.235.957 3.352.639 7.023.479 10.056-.957" fill="#FFB9B0"/><path d="M402.389 76.611c-.16 10.375-.958 15.163-.638 25.537-5.268 1.118-12.45 7.023-19.793 10.215 0 0-.478 1.437.32 2.714.638.159 24.899-5.746 26.815-7.502 1.756-1.596 3.99-21.068 4.15-33.517 0-1.756 0-3.671-1.117-5.108-.639-.798-1.437-1.277-2.235-1.596-4.789-2.394-8.3-3.192-13.727-3.511" fill="#FCA70C"/><path d="M386.906 47.244c-.159-.32-.957-.48-1.755-.32-.798.16-3.193.32-3.671.798-.479.32-.479.639-.639.639-.319 0-.319-.16-.798-.479-.479-.32-1.915 0-2.713 0-.799.16-1.756.32-1.597.639 0 .319.16 1.117.32 1.117.159.16.159.16.798 1.596.319.798.957 1.436 2.075 1.117 1.436-.32 1.436-1.915 1.596-2.554.159-.638.159-.798.479-.798.159 0 .319 0 .638.639.319.638.479 2.075 1.916 2.234 1.915.16 2.713-.479 3.032-1.755.319-1.596.319-1.596.479-1.756l1.437.16v-.48c-.32 0-1.597-.638-1.597-.797zm-7.023 3.351c0 .798-.478 1.596-1.436 1.756-.798.16-1.277-.32-1.756-1.436-.479-.958-.479-1.756-.319-2.075.16-.32.638-.32 1.756-.32 1.117 0 1.436-.16 1.596.32.159.16.319.957.159 1.755zm6.225-.957c-.159 1.277-.638 1.755-1.755 1.915-1.756.16-2.075-.479-2.235-1.277-.319-.798-.319-1.436-.319-1.596 0-.479.479-.638 1.436-.798 1.118-.16 2.554-.479 2.714-.16.159.32.319.958.159 1.916z" fill="#483A99"/><path d="M398.399 44.53a76.328 76.328 0 00-.479-2.553c-.639-2.235-1.915-4.15-3.99-5.267-2.554-1.437-6.225-1.756-8.939-.958-1.596.479-2.234 1.277-3.033 1.277-.638 0-1.436-.479-2.234-.798-6.385-2.394-5.427 3.99-4.629 5.746.319.798 1.756 1.277 1.915 1.596.16.32.16 1.915.32 2.554.159.638.798.957.798.957V44.85c.159-.798.319-1.437.957-1.916.639-.478 1.597-.478 2.395-.638.798-.16 4.469.639 4.788.798 1.277.958 1.437 3.352 1.915 4.788.16.639.32 1.118.639 1.118.16-1.916.798-1.916 2.075-1.277.638.319.958 1.596.958 2.553 0 1.277-.639 2.554-1.916 2.873-.479.16.958 2.714 1.596 3.352l.639.639c.159.16.479.16.798.319.319.16.638.16.958.319.478.16.798.16 1.276.16.639-.16 1.118-.958 1.277-1.596.479-1.118 1.118-2.075 1.437-3.193.479-2.553.798-5.745.479-8.618z" fill="#483A99"/><path d="M451.87 390.079c25.299 0 45.809-2.144 45.809-4.788 0-2.645-20.51-4.789-45.809-4.789-25.3 0-45.81 2.144-45.81 4.789 0 2.644 20.51 4.788 45.81 4.788z" fill="#B9F1FF"/><path d="M427.289 378.427c-.319.798-2.234 2.554-4.788 3.671-2.554 1.118-7.981 1.596-4.948 2.714 3.032.957 6.544.319 8.3.159 1.755-.319 3.511-.319 5.586-.319 2.714 0 2.714-.16 2.394-3.352-.479-4.469-5.267-5.267-6.544-2.873zm49.959-1.596c-.159.798 1.118 3.512-1.117 5.427-2.235 1.915-7.183 3.99-3.831 3.99s6.545-.638 8.141-1.596c1.756-.798.319-2.075 2.394-2.713 2.713-.798 2.235-2.873.798-4.15-1.915-4.15-5.906-3.671-6.385-.958z" fill="#35333C"/><path d="M466.714 289.686s6.544-19.312-12.131-35.273c0 0-10.055 3.99-18.036 4.469-6.385.319-9.577-.16-9.577-.16s-.479 17.238-.479 26.495l40.223 4.469zm-41.66 32.081c-.319-8.619 8.939-7.502 12.45-1.117 7.183 13.407-2.713 44.051-3.99 58.735-1.277.479-3.671.957-4.948.319-.958-.479-1.437-1.596-1.437-1.596.32-17.876-1.596-47.084-2.075-56.341z" fill="#1F120A"/><path d="M437.185 323.044c-1.117 3.511-13.088 7.182-12.131-5.586.479-5.746 1.597-37.189 1.756-40.221.16-3.033.798-7.502 2.235-7.98 7.342-2.714 20.271 6.863 18.356 18.195-1.118 7.661-7.981 28.25-10.216 35.592zm18.835 4.948c-2.873-8.14 6.544-9.576 11.811-4.629 12.45 11.811 12.929 39.423 15.962 53.788-1.756 1.117-4.469 1.596-5.427 1.596-.958 0-1.437-.798-1.437-.798-4.948-17.078-17.717-41.179-20.909-49.957z" fill="#1F120A"/><path d="M468.47 325.279c.319 3.671-9.577 11.332-13.567-.958-1.756-5.427-9.258-37.667-10.056-40.54-.958-2.873-.639-8.938.479-9.896 5.746-5.267 18.675-.638 21.228 10.694 1.597 7.501 1.118 33.198 1.916 40.7z" fill="#1F120A"/><path d="M417.074 184.505c.319-.319.638-.638.957-1.117 2.395-3.032 2.714-5.746 4.949-9.257.319-.479.798-1.915 1.596-3.033.798-1.276 3.032-2.553 3.511-2.873.958-.478.16 1.756.16 1.756s.798-1.277 1.756-1.117c.319 0 .319 1.915.319 2.234 0 2.714-.639 5.267-1.756 7.662-.319.478-.638 1.117-.638 1.755.798 0 1.436-.479 2.075-.957.638-.479 1.436-.958 2.234-.639l-.479.958c-.957 1.755-1.915 3.671-3.83 4.469-1.118.479-2.235.638-3.352 1.117-1.916.958-2.873 3.352-4.789 4.309" fill="#F2A181"/><path d="M428.247 185.144l-5.587-2.394c-.479-.16-.798-.798-.479-1.277l4.948-11.971c.16-.478.798-.798 1.277-.478l5.587 2.394c.479.159.798.798.479 1.276l-4.948 11.971c-.16.479-.799.798-1.277.479z" fill="#01C1F0"/><path d="M434.268 172.297l-6.332-2.648-5.174 12.369 6.332 2.649 5.174-12.37z" fill="#89E8FF"/><path d="M434.312 196.795s-4.788.32-9.098 1.596c-6.544 1.916-8.779 4.948-11.013 6.225 4.309-5.586 9.257-17.237 9.257-17.237s-5.905-4.789-6.544-3.671c-.638 1.117-25.219 29.846-24.58 34.634.319 1.915 3.192 3.831 5.746 3.671 7.023-.159 15.003-2.713 23.623-5.586 3.671-1.277 4.948 1.436 4.948 1.436" fill="#01C1F0"/><path d="M414.201 204.456s-3.033 6.225-3.991 6.704c-.957.479 2.235-1.277 3.991-3.033 1.755-1.755 4.15-6.544 4.15-6.544-.958.32-4.15 2.873-4.15 2.873z" fill="#01A7CF"/><path d="M423.937 174.291c.319.159.319.638.479.957.16 1.437.479 2.873-.16 4.15-.319.798-.957 1.596-1.596 2.075-.798.638-1.596 1.277-2.554 1.756" fill="#F2A181"/><path d="M434.472 163.916c-1.596.479-2.554 2.554-3.033 3.99-.638 1.756-.957 3.671-1.277 5.427-.159 1.277-.319 2.713.32 3.83.319.639.638 1.118 1.117 1.596.159.32.479.639.798.798.319.16.638.32 1.117.16s.639-.798.798-1.277c.958-3.511 1.916-6.863 3.991-9.895" fill="#1F120A"/><path d="M432.557 174.769c0-1.117-1.118-1.756-2.235-.638-.798.957-1.117 2.713-1.117 3.99 0 1.596 1.117 1.915 2.234 2.075" fill="#F2A181"/><path d="M421.703 202.381c2.075-2.394 8.459-6.224 17.079-5.905 5.905.159 22.026 1.117 23.942 5.107.957 2.075 1.915 22.824.638 30.006-.958 5.427-3.671 18.674-3.671 21.866 0 3.193 1.756 4.629.958 5.587-1.756 2.075-14.206 3.032-19.952 3.032-5.108 0-13.887-1.436-14.365-3.032-.639-2.394.957-2.394 1.276-4.948.16-2.554.799-19.313 0-22.026-1.755-4.948-2.553-12.928-3.83-16.599-1.437-2.873-4.15-10.694-2.075-13.088z" fill="#01C1F0"/><path d="M458.574 219.3c.638 1.276 4.788 7.98 4.788 7.98l.16.798a64.996 64.996 0 01-.479 3.511c-.958 5.427-3.671 18.674-3.671 21.866 0 3.193 1.596 4.469.957 5.587-1.436 1.915-24.74 6.224-23.623.957.16-.478 19.473-15.322 19.633-15.801.958-4.309 1.756-7.342 2.075-10.374 1.117-7.661-.479-15.961.16-14.524z" fill="#01A7CF"/><path d="M433.993 189.134s0 6.704-.319 7.023c-.319.319-1.596.957-1.596.957s.957 5.906 2.394 5.427c1.436-.479 11.173-5.267 11.173-5.267s-1.437-.638-1.437-1.117 1.277-11.173 1.277-11.173" fill="#FFBE9D"/><path d="M440.856 164.555c-1.436.319-5.107-.32-6.225 1.117-.957 1.596-1.915 5.267-2.394 6.225-.798 2.074-1.277 4.309-1.756 6.384-.798 2.713-1.915 7.821.799 10.055.798.638 1.117.958 2.075 1.117 1.276.16 2.553.479 3.83.798 1.916.32 4.15.798 6.066.16 2.554-.798 3.99-4.469 4.788-6.863l3.831-14.046-11.014-4.947z" fill="#FFBE9D"/><path d="M435.748 260c-2.873.478-3.99 1.596-5.746 3.192-.159.159-.319.319-.319.478 0 .16.319.32.479.32 1.436.159 1.596-.639 2.873-1.118.798-.319 1.756-.798 2.554-1.117" fill="#F2A181"/><path d="M425.693 238.453l10.375 33.517c.319.958-.16 1.596-1.117 1.756l-21.708 1.915c-.798 0-1.596-.638-1.756-1.436l-11.173-32.879c-.319-.958.958-2.235 1.916-2.235l21.707-1.915c.798-.16 1.596.479 1.756 1.277z" fill="#01C1F0"/><path d="M425.055 239.411l10.215 32.879c.319.957-.16 1.596-1.117 1.755l-21.708 1.915c-.798 0-1.596-.638-1.756-1.436l-10.215-32.879c-.319-.958.16-1.596 1.117-1.756l21.708-1.915c.638 0 1.436.639 1.756 1.437z" fill="#89E8FF"/><path d="M407.656 238.293l.798 2.873 10.056-.958-.798-2.873-10.056.958z" fill="#fff"/><path d="M409.572 235.58c.159.638.957 3.192.957 3.192l4.789-.479-.958-3.192c-.479-1.436-1.915-2.394-3.192-2.394-1.277.319-2.075 1.437-1.596 2.873zm1.117 0c-.319-.798.16-1.436.958-1.596.798 0 1.596.479 1.755 1.277.32.798-.159 1.436-.957 1.596-.798 0-1.596-.479-1.756-1.277z" fill="#fff"/><path d="M444.049 257.605c-2.235.479-8.3 2.235-8.939 2.554-.798.319-3.352 2.235-3.83 2.873-2.235 2.235-1.118 3.352-2.075 6.544v.479c0 .319.478.638.957.319.16.479.958.16 1.277-.319 0 .319.479.479 1.118.159.319-.159.319-.159 1.117-.957.638-.479 1.277-.958 2.554-1.437.798-.319 1.755-.638 2.394-1.117.958-.638 2.554-.798 3.352-3.352.159-.638.798-.957 1.277-1.277 1.277-.798 2.554-1.596 3.671-2.394" fill="#FFBE9D"/><path d="M458.095 214.831c.957 3.511 4.948 27.452 4.948 27.452l-22.666 16.28 1.916 4.948s27.134-9.098 29.369-15.322c2.075-6.225 2.075-34.316-5.427-44.211-2.394-3.192-7.183-4.789-7.183-4.789" fill="#01C1F0"/><path d="M434.791 266.224s-.16.16-.639.479c-.319.319-.798.638-1.117 1.117-.319.479-.798.958-1.117 1.277-.319.319-.639.479-.639.479s.479-1.117 1.437-2.075c.319-.479.957-.798 1.277-1.117.479 0 .798-.16.798-.16zm-1.277-1.436s-.319.319-.638.798c-.16.159-.32.478-.639.798-.16.159-.16.319-.319.478-.16.16-.16.32-.319.479-.639 1.437-1.597 2.714-1.597 2.714s.16-.32.32-.958c.159-.479.638-1.277.957-1.915.32-.798.958-1.277 1.277-1.756.639-.479.958-.638.958-.638zm-1.436-1.277s-.16.319-.479.798c-.16.159-.319.479-.639.798l-.478.957c-.32.639-.479 1.437-.798 1.916l-.32.957s0-.319.16-.957c.159-.639.319-1.277.638-1.916l.479-.957c.16-.319.479-.479.639-.639.638-.638.798-.957.798-.957z" fill="#F2A181"/><path d="M449.476 180.994c-.958-.479-1.596-1.117-2.075-.16-.319.479-.479 1.118-.958 1.277-.479.16-1.117-.319-1.117-.798-.16-.479 0-1.117.159-1.596.32-1.117.639-2.234 1.118-3.511.319-1.117.638-2.394.319-3.511-.16-.479-.639-.958-1.117-1.437-1.437-1.277-3.352-1.915-5.268-2.234-1.915-.32-3.83-.639-5.746-1.118-.798-.319-1.596-.638-2.234-1.117-.958-.798-1.597-2.234-1.597-3.511 0-1.277.479-2.554 1.118-3.671.159.479.319.957.638 1.277.16-.639.639-1.118 1.117-1.596.479 3.032 13.568 2.074 16.6 3.351 2.075.958 3.831 1.596 3.831 4.948 0 .16.319.319.479.479 1.915 1.756 2.714 3.831 2.873 6.863.319 3.831-1.915 7.821-4.15 11.013-.479.798-.798 1.277-1.596 1.915-.798.639-2.075.798-3.033.639-.957-.16-2.713-.16-2.873-1.118 0-.638 1.437-1.915 1.916-2.394" fill="#1F120A"/><path d="M445.964 184.665s-.16.638.319 1.117c.319.479 1.118.319 1.596.16 1.437-.479 2.395-1.756 2.554-3.193.319-1.596-.638-3.351-2.075-2.872-.798.319-1.436 1.276-1.436 2.234" fill="#FFBE9D"/><path d="M433.993 189.772l4.15.798s-1.437 1.597-4.15 1.597" fill="#232323"/><path d="M354.186 47.084a12.576 12.576 0 002.713-7.82c0-7.024-5.586-12.61-12.609-12.61s-12.61 5.586-12.61 12.61c0 7.022 5.587 12.608 12.61 12.608 2.554 0 4.948-.798 7.023-2.075l4.948 2.554-2.075-5.267z" fill="#FE5072"/><path d="M339.023 35.752c1.276-1.117 3.192-1.117 4.309 0l.798.798.798-.798c1.277-1.277 3.193-1.117 4.31 0 1.117 1.277 1.117 3.192 0 4.31l-3.033 3.032c-.479.478-1.117.798-1.756.798-.957.16-1.915-.16-2.713-.958l-2.873-3.032c-1.117-.958-1.117-2.873.16-4.15z" fill="#fff"/><defs><filter id="filter0_d" x="116.638" y="133.066" width="282.44" height="222.578" filterUnits="userSpaceOnUse" color-interpolation-filters="sRGB"><feFlood flood-opacity="0" result="BackgroundImageFix"/><feColorMatrix in="SourceAlpha" values="0 0 0 0 0 0 0 0 0 0 0 0 0 0 0 0 0 0 127 0"/><feOffset dy="15"/><feGaussianBlur stdDeviation="25"/><feColorMatrix values="0 0 0 0 0 0 0 0 0 0 0 0 0 0 0 0 0 0 0.15 0"/><feBlend in2="BackgroundImageFix" result="effect1_dropShadow"/><feBlend in="SourceGraphic" in2="effect1_dropShadow" result="shape"/></filter></defs></svg>